<svg width="40" height="42" viewBox="0 0 40 42" fill="none" xmlns="http://www.w3.org/2000/svg">
<g clip-path="url(#clip0_661_448)">
<path d="M32.8559 27.867V3.5C32.8559 2.96957 32.6452 2.46086 32.2701 2.08579C31.895 1.71071 31.3863 1.5 30.8559 1.5H3.8559C3.32546 1.5 2.81676 1.71071 2.44168 2.08579C2.06661 2.46086 1.8559 2.96957 1.8559 3.5V38.5C1.8559 39.0304 2.06661 39.5391 2.44168 39.9142C2.81676 40.2893 3.32546 40.5 3.8559 40.5H30.8559C31.3863 40.5 31.895 40.2893 32.2701 39.9142C32.6452 39.5391 32.8559 39.0304 32.8559 38.5V37.031" fill="#39CD7D"/>
<path d="M32.8559 27.867V3.5C32.8559 2.96957 32.6452 2.46086 32.2701 2.08579C31.895 1.71071 31.3863 1.5 30.8559 1.5H3.8559C3.32546 1.5 2.81676 1.71071 2.44168 2.08579C2.06661 2.46086 1.8559 2.96957 1.8559 3.5V38.5C1.8559 39.0304 2.06661 39.5391 2.44168 39.9142C2.81676 40.2893 3.32546 40.5 3.8559 40.5H30.8559C31.3863 40.5 31.895 40.2893 32.2701 39.9142C32.6452 39.5391 32.8559 39.0304 32.8559 38.5V37.031" stroke="black" stroke-width="2" stroke-linecap="round" stroke-linejoin="round"/>
<path d="M30.4899 34.66L14.6439 18.775V14.25H19.2759L35.0609 30.078M37.6709 34.985C37.974 34.6808 38.1441 34.2689 38.1441 33.8395C38.1441 33.4101 37.974 32.9982 37.6709 32.694L35.0609 30.078L30.4899 34.66L33.1009 37.276C33.2508 37.4261 33.4288 37.5452 33.6248 37.6264C33.8207 37.7076 34.0308 37.7495 34.2429 37.7495C34.455 37.7495 34.6651 37.7076 34.861 37.6264C35.057 37.5452 35.235 37.4261 35.3849 37.276L37.6709 34.985ZM6.3559 7.5H28.3559ZM6.3559 14.25H14.6439ZM26.0079 21H28.3559ZM6.3559 21H16.8639ZM6.3559 27.75H23.3449ZM6.3559 34.5H28.3559Z" fill="#CDAC38"/>
<path d="M30.4899 34.66L14.6439 18.775V14.25M30.4899 34.66L35.0609 30.078M30.4899 34.66L33.1009 37.276C33.2508 37.4261 33.4288 37.5452 33.6248 37.6264C33.8207 37.7076 34.0308 37.7495 34.2429 37.7495C34.455 37.7495 34.6651 37.7076 34.861 37.6264C35.057 37.5452 35.235 37.4261 35.3849 37.276L37.6709 34.985C37.974 34.6808 38.1441 34.2689 38.1441 33.8395C38.1441 33.4101 37.974 32.9982 37.6709 32.694L35.0609 30.078M14.6439 14.25H19.2759L35.0609 30.078M14.6439 14.25H6.3559M6.3559 7.5H28.3559M26.0079 21H28.3559M6.3559 21H16.8639M6.3559 27.75H23.3449M6.3559 34.5H28.3559" stroke="black" stroke-width="2" stroke-linecap="round" stroke-linejoin="round"/>
</g>
<defs>
<clipPath id="clip0_661_448">
<rect width="40" height="42" fill="white"/>
</clipPath>
</defs>
</svg>
